<mxfile host="Electron" agent="Mozilla/5.0 (Macintosh; Intel Mac OS X 10_15_7) AppleWebKit/537.36 (KHTML, like Gecko) draw.io/26.0.16 Chrome/132.0.6834.196 Electron/34.2.0 Safari/537.36" version="26.0.16">
  <diagram name="Page-1" id="37GojbIX0Rd0aTj9gflg">
    <mxGraphModel dx="1693" dy="843" grid="1" gridSize="10" guides="1" tooltips="1" connect="1" arrows="1" fold="1" page="1" pageScale="1" pageWidth="1200" pageHeight="1920" math="0" shadow="0">
      <root>
        <mxCell id="0" />
        <mxCell id="1" parent="0" />
        <mxCell id="-cN0JcNrB5t6STGXei_7-1" value="dim_customers" style="swimlane;fontStyle=1;childLayout=stackLayout;horizontal=1;startSize=26;fillColor=default;horizontalStack=0;resizeParent=1;resizeLast=0;collapsible=1;marginBottom=0;swimlaneFillColor=default;align=center;fontSize=14;" vertex="1" parent="1">
          <mxGeometry x="410" y="990" width="300" height="156" as="geometry" />
        </mxCell>
        <mxCell id="-cN0JcNrB5t6STGXei_7-2" value="customer_id VARCHAR(50)" style="shape=partialRectangle;top=0;left=0;right=0;bottom=1;align=left;verticalAlign=top;spacingTop=-2;fillColor=none;spacingLeft=64;spacingRight=4;overflow=hidden;rotatable=0;points=[[0,0.5],[1,0.5]];portConstraint=eastwest;dropTarget=0;" vertex="1" parent="-cN0JcNrB5t6STGXei_7-1">
          <mxGeometry y="26" width="300" height="26" as="geometry" />
        </mxCell>
        <mxCell id="-cN0JcNrB5t6STGXei_7-3" value="PK" style="shape=partialRectangle;top=0;left=0;bottom=0;fillColor=none;align=left;verticalAlign=middle;spacingLeft=4;spacingRight=4;overflow=hidden;rotatable=180;points=[];portConstraint=eastwest;part=1;fontStyle=1" vertex="1" connectable="0" parent="-cN0JcNrB5t6STGXei_7-2">
          <mxGeometry width="54" height="26" as="geometry" />
        </mxCell>
        <mxCell id="-cN0JcNrB5t6STGXei_7-4" value="customer_unique_id VARCHAR(50)" style="shape=partialRectangle;top=0;left=0;right=0;bottom=0;align=left;verticalAlign=top;spacingTop=-2;fillColor=none;spacingLeft=64;spacingRight=4;overflow=hidden;rotatable=0;points=[[0,0.5],[1,0.5]];portConstraint=eastwest;dropTarget=0;" vertex="1" parent="-cN0JcNrB5t6STGXei_7-1">
          <mxGeometry y="52" width="300" height="26" as="geometry" />
        </mxCell>
        <mxCell id="-cN0JcNrB5t6STGXei_7-5" value="" style="shape=partialRectangle;top=0;left=0;bottom=0;fillColor=none;align=left;verticalAlign=middle;spacingLeft=4;spacingRight=4;overflow=hidden;rotatable=180;points=[];portConstraint=eastwest;part=1;" vertex="1" connectable="0" parent="-cN0JcNrB5t6STGXei_7-4">
          <mxGeometry width="54" height="26" as="geometry" />
        </mxCell>
        <mxCell id="-cN0JcNrB5t6STGXei_7-6" value="customer_city VARCHAR(100)" style="shape=partialRectangle;top=0;left=0;right=0;bottom=0;align=left;verticalAlign=top;spacingTop=-2;fillColor=none;spacingLeft=64;spacingRight=4;overflow=hidden;rotatable=0;points=[[0,0.5],[1,0.5]];portConstraint=eastwest;dropTarget=0;" vertex="1" parent="-cN0JcNrB5t6STGXei_7-1">
          <mxGeometry y="78" width="300" height="26" as="geometry" />
        </mxCell>
        <mxCell id="-cN0JcNrB5t6STGXei_7-7" value="" style="shape=partialRectangle;top=0;left=0;bottom=0;fillColor=none;align=left;verticalAlign=middle;spacingLeft=4;spacingRight=4;overflow=hidden;rotatable=180;points=[];portConstraint=eastwest;part=1;" vertex="1" connectable="0" parent="-cN0JcNrB5t6STGXei_7-6">
          <mxGeometry width="54" height="26" as="geometry" />
        </mxCell>
        <mxCell id="-cN0JcNrB5t6STGXei_7-8" value="customer_state VARCHAR(50)" style="shape=partialRectangle;top=0;left=0;right=0;bottom=0;align=left;verticalAlign=top;spacingTop=-2;fillColor=none;spacingLeft=64;spacingRight=4;overflow=hidden;rotatable=0;points=[[0,0.5],[1,0.5]];portConstraint=eastwest;dropTarget=0;" vertex="1" parent="-cN0JcNrB5t6STGXei_7-1">
          <mxGeometry y="104" width="300" height="26" as="geometry" />
        </mxCell>
        <mxCell id="-cN0JcNrB5t6STGXei_7-9" value="" style="shape=partialRectangle;top=0;left=0;bottom=0;fillColor=none;align=left;verticalAlign=middle;spacingLeft=4;spacingRight=4;overflow=hidden;rotatable=180;points=[];portConstraint=eastwest;part=1;" vertex="1" connectable="0" parent="-cN0JcNrB5t6STGXei_7-8">
          <mxGeometry width="54" height="26" as="geometry" />
        </mxCell>
        <mxCell id="-cN0JcNrB5t6STGXei_7-10" value="customer_zip_code_prefix VARCHAR(50)" style="shape=partialRectangle;top=0;left=0;right=0;bottom=0;align=left;verticalAlign=top;spacingTop=-2;fillColor=none;spacingLeft=64;spacingRight=4;overflow=hidden;rotatable=0;points=[[0,0.5],[1,0.5]];portConstraint=eastwest;dropTarget=0;" vertex="1" parent="-cN0JcNrB5t6STGXei_7-1">
          <mxGeometry y="130" width="300" height="26" as="geometry" />
        </mxCell>
        <mxCell id="-cN0JcNrB5t6STGXei_7-11" value="" style="shape=partialRectangle;top=0;left=0;bottom=0;fillColor=none;align=left;verticalAlign=middle;spacingLeft=4;spacingRight=4;overflow=hidden;rotatable=180;points=[];portConstraint=eastwest;part=1;" vertex="1" connectable="0" parent="-cN0JcNrB5t6STGXei_7-10">
          <mxGeometry width="54" height="26" as="geometry" />
        </mxCell>
        <mxCell id="-cN0JcNrB5t6STGXei_7-12" value="dim_sellers" style="swimlane;fontStyle=1;childLayout=stackLayout;horizontal=1;startSize=26;fillColor=default;horizontalStack=0;resizeParent=1;resizeLast=0;collapsible=1;marginBottom=0;swimlaneFillColor=default;align=center;fontSize=14;" vertex="1" parent="1">
          <mxGeometry x="1490" y="450" width="280" height="130" as="geometry" />
        </mxCell>
        <mxCell id="-cN0JcNrB5t6STGXei_7-13" value="seller_id VARCHAR(50)" style="shape=partialRectangle;top=0;left=0;right=0;bottom=1;align=left;verticalAlign=top;spacingTop=-2;fillColor=none;spacingLeft=64;spacingRight=4;overflow=hidden;rotatable=0;points=[[0,0.5],[1,0.5]];portConstraint=eastwest;dropTarget=0;" vertex="1" parent="-cN0JcNrB5t6STGXei_7-12">
          <mxGeometry y="26" width="280" height="26" as="geometry" />
        </mxCell>
        <mxCell id="-cN0JcNrB5t6STGXei_7-14" value="PK" style="shape=partialRectangle;top=0;left=0;bottom=0;fillColor=none;align=left;verticalAlign=middle;spacingLeft=4;spacingRight=4;overflow=hidden;rotatable=180;points=[];portConstraint=eastwest;part=1;fontStyle=1" vertex="1" connectable="0" parent="-cN0JcNrB5t6STGXei_7-13">
          <mxGeometry width="54" height="26" as="geometry" />
        </mxCell>
        <mxCell id="-cN0JcNrB5t6STGXei_7-15" value="seller_city VARCHAR(100)" style="shape=partialRectangle;top=0;left=0;right=0;bottom=0;align=left;verticalAlign=top;spacingTop=-2;fillColor=none;spacingLeft=64;spacingRight=4;overflow=hidden;rotatable=0;points=[[0,0.5],[1,0.5]];portConstraint=eastwest;dropTarget=0;" vertex="1" parent="-cN0JcNrB5t6STGXei_7-12">
          <mxGeometry y="52" width="280" height="26" as="geometry" />
        </mxCell>
        <mxCell id="-cN0JcNrB5t6STGXei_7-16" value="" style="shape=partialRectangle;top=0;left=0;bottom=0;fillColor=none;align=left;verticalAlign=middle;spacingLeft=4;spacingRight=4;overflow=hidden;rotatable=180;points=[];portConstraint=eastwest;part=1;" vertex="1" connectable="0" parent="-cN0JcNrB5t6STGXei_7-15">
          <mxGeometry width="54" height="26" as="geometry" />
        </mxCell>
        <mxCell id="-cN0JcNrB5t6STGXei_7-17" value="seller_state VARCHAR(50)" style="shape=partialRectangle;top=0;left=0;right=0;bottom=0;align=left;verticalAlign=top;spacingTop=-2;fillColor=none;spacingLeft=64;spacingRight=4;overflow=hidden;rotatable=0;points=[[0,0.5],[1,0.5]];portConstraint=eastwest;dropTarget=0;" vertex="1" parent="-cN0JcNrB5t6STGXei_7-12">
          <mxGeometry y="78" width="280" height="26" as="geometry" />
        </mxCell>
        <mxCell id="-cN0JcNrB5t6STGXei_7-18" value="" style="shape=partialRectangle;top=0;left=0;bottom=0;fillColor=none;align=left;verticalAlign=middle;spacingLeft=4;spacingRight=4;overflow=hidden;rotatable=180;points=[];portConstraint=eastwest;part=1;" vertex="1" connectable="0" parent="-cN0JcNrB5t6STGXei_7-17">
          <mxGeometry width="54" height="26" as="geometry" />
        </mxCell>
        <mxCell id="-cN0JcNrB5t6STGXei_7-19" value="seller_zip_code_prefix VARCHAR(50)" style="shape=partialRectangle;top=0;left=0;right=0;bottom=0;align=left;verticalAlign=top;spacingTop=-2;fillColor=none;spacingLeft=64;spacingRight=4;overflow=hidden;rotatable=0;points=[[0,0.5],[1,0.5]];portConstraint=eastwest;dropTarget=0;" vertex="1" parent="-cN0JcNrB5t6STGXei_7-12">
          <mxGeometry y="104" width="280" height="26" as="geometry" />
        </mxCell>
        <mxCell id="-cN0JcNrB5t6STGXei_7-20" value="" style="shape=partialRectangle;top=0;left=0;bottom=0;fillColor=none;align=left;verticalAlign=middle;spacingLeft=4;spacingRight=4;overflow=hidden;rotatable=180;points=[];portConstraint=eastwest;part=1;" vertex="1" connectable="0" parent="-cN0JcNrB5t6STGXei_7-19">
          <mxGeometry width="54" height="26" as="geometry" />
        </mxCell>
        <mxCell id="-cN0JcNrB5t6STGXei_7-21" value="dim_products" style="swimlane;fontStyle=1;childLayout=stackLayout;horizontal=1;startSize=26;fillColor=default;horizontalStack=0;resizeParent=1;resizeLast=0;collapsible=1;marginBottom=0;swimlaneFillColor=default;align=center;fontSize=14;" vertex="1" parent="1">
          <mxGeometry x="1430.5" y="1000" width="339.5" height="208" as="geometry" />
        </mxCell>
        <mxCell id="-cN0JcNrB5t6STGXei_7-22" value="product_id VARCHAR(50)" style="shape=partialRectangle;top=0;left=0;right=0;bottom=1;align=left;verticalAlign=top;spacingTop=-2;fillColor=none;spacingLeft=64;spacingRight=4;overflow=hidden;rotatable=0;points=[[0,0.5],[1,0.5]];portConstraint=eastwest;dropTarget=0;" vertex="1" parent="-cN0JcNrB5t6STGXei_7-21">
          <mxGeometry y="26" width="339.5" height="26" as="geometry" />
        </mxCell>
        <mxCell id="-cN0JcNrB5t6STGXei_7-23" value="PK" style="shape=partialRectangle;top=0;left=0;bottom=0;fillColor=none;align=left;verticalAlign=middle;spacingLeft=4;spacingRight=4;overflow=hidden;rotatable=180;points=[];portConstraint=eastwest;part=1;fontStyle=1" vertex="1" connectable="0" parent="-cN0JcNrB5t6STGXei_7-22">
          <mxGeometry width="54" height="26" as="geometry" />
        </mxCell>
        <mxCell id="-cN0JcNrB5t6STGXei_7-24" value="product_category_name VARCHAR(100)" style="shape=partialRectangle;top=0;left=0;right=0;bottom=0;align=left;verticalAlign=top;spacingTop=-2;fillColor=none;spacingLeft=64;spacingRight=4;overflow=hidden;rotatable=0;points=[[0,0.5],[1,0.5]];portConstraint=eastwest;dropTarget=0;" vertex="1" parent="-cN0JcNrB5t6STGXei_7-21">
          <mxGeometry y="52" width="339.5" height="26" as="geometry" />
        </mxCell>
        <mxCell id="-cN0JcNrB5t6STGXei_7-25" value="" style="shape=partialRectangle;top=0;left=0;bottom=0;fillColor=none;align=left;verticalAlign=middle;spacingLeft=4;spacingRight=4;overflow=hidden;rotatable=180;points=[];portConstraint=eastwest;part=1;" vertex="1" connectable="0" parent="-cN0JcNrB5t6STGXei_7-24">
          <mxGeometry width="54" height="26" as="geometry" />
        </mxCell>
        <mxCell id="-cN0JcNrB5t6STGXei_7-26" value="product_category_name_english VARCHAR(100)" style="shape=partialRectangle;top=0;left=0;right=0;bottom=0;align=left;verticalAlign=top;spacingTop=-2;fillColor=none;spacingLeft=64;spacingRight=4;overflow=hidden;rotatable=0;points=[[0,0.5],[1,0.5]];portConstraint=eastwest;dropTarget=0;" vertex="1" parent="-cN0JcNrB5t6STGXei_7-21">
          <mxGeometry y="78" width="339.5" height="26" as="geometry" />
        </mxCell>
        <mxCell id="-cN0JcNrB5t6STGXei_7-27" value="" style="shape=partialRectangle;top=0;left=0;bottom=0;fillColor=none;align=left;verticalAlign=middle;spacingLeft=4;spacingRight=4;overflow=hidden;rotatable=180;points=[];portConstraint=eastwest;part=1;" vertex="1" connectable="0" parent="-cN0JcNrB5t6STGXei_7-26">
          <mxGeometry width="54" height="26" as="geometry" />
        </mxCell>
        <mxCell id="-cN0JcNrB5t6STGXei_7-28" value="product_weight_g DECIMAL(10,2)" style="shape=partialRectangle;top=0;left=0;right=0;bottom=0;align=left;verticalAlign=top;spacingTop=-2;fillColor=none;spacingLeft=64;spacingRight=4;overflow=hidden;rotatable=0;points=[[0,0.5],[1,0.5]];portConstraint=eastwest;dropTarget=0;" vertex="1" parent="-cN0JcNrB5t6STGXei_7-21">
          <mxGeometry y="104" width="339.5" height="26" as="geometry" />
        </mxCell>
        <mxCell id="-cN0JcNrB5t6STGXei_7-29" value="" style="shape=partialRectangle;top=0;left=0;bottom=0;fillColor=none;align=left;verticalAlign=middle;spacingLeft=4;spacingRight=4;overflow=hidden;rotatable=180;points=[];portConstraint=eastwest;part=1;" vertex="1" connectable="0" parent="-cN0JcNrB5t6STGXei_7-28">
          <mxGeometry width="54" height="26" as="geometry" />
        </mxCell>
        <mxCell id="-cN0JcNrB5t6STGXei_7-30" value="product_height_cm DECIMAL(10,2)" style="shape=partialRectangle;top=0;left=0;right=0;bottom=0;align=left;verticalAlign=top;spacingTop=-2;fillColor=none;spacingLeft=64;spacingRight=4;overflow=hidden;rotatable=0;points=[[0,0.5],[1,0.5]];portConstraint=eastwest;dropTarget=0;" vertex="1" parent="-cN0JcNrB5t6STGXei_7-21">
          <mxGeometry y="130" width="339.5" height="26" as="geometry" />
        </mxCell>
        <mxCell id="-cN0JcNrB5t6STGXei_7-31" value="" style="shape=partialRectangle;top=0;left=0;bottom=0;fillColor=none;align=left;verticalAlign=middle;spacingLeft=4;spacingRight=4;overflow=hidden;rotatable=180;points=[];portConstraint=eastwest;part=1;" vertex="1" connectable="0" parent="-cN0JcNrB5t6STGXei_7-30">
          <mxGeometry width="54" height="26" as="geometry" />
        </mxCell>
        <mxCell id="-cN0JcNrB5t6STGXei_7-32" value="product_length_cm DECIMAL(10,2)" style="shape=partialRectangle;top=0;left=0;right=0;bottom=0;align=left;verticalAlign=top;spacingTop=-2;fillColor=none;spacingLeft=64;spacingRight=4;overflow=hidden;rotatable=0;points=[[0,0.5],[1,0.5]];portConstraint=eastwest;dropTarget=0;" vertex="1" parent="-cN0JcNrB5t6STGXei_7-21">
          <mxGeometry y="156" width="339.5" height="26" as="geometry" />
        </mxCell>
        <mxCell id="-cN0JcNrB5t6STGXei_7-33" value="" style="shape=partialRectangle;top=0;left=0;bottom=0;fillColor=none;align=left;verticalAlign=middle;spacingLeft=4;spacingRight=4;overflow=hidden;rotatable=180;points=[];portConstraint=eastwest;part=1;" vertex="1" connectable="0" parent="-cN0JcNrB5t6STGXei_7-32">
          <mxGeometry width="54" height="26" as="geometry" />
        </mxCell>
        <mxCell id="-cN0JcNrB5t6STGXei_7-34" value="product_width_cm DECIMAL(10,2)" style="shape=partialRectangle;top=0;left=0;right=0;bottom=0;align=left;verticalAlign=top;spacingTop=-2;fillColor=none;spacingLeft=64;spacingRight=4;overflow=hidden;rotatable=0;points=[[0,0.5],[1,0.5]];portConstraint=eastwest;dropTarget=0;" vertex="1" parent="-cN0JcNrB5t6STGXei_7-21">
          <mxGeometry y="182" width="339.5" height="26" as="geometry" />
        </mxCell>
        <mxCell id="-cN0JcNrB5t6STGXei_7-35" value="" style="shape=partialRectangle;top=0;left=0;bottom=0;fillColor=none;align=left;verticalAlign=middle;spacingLeft=4;spacingRight=4;overflow=hidden;rotatable=180;points=[];portConstraint=eastwest;part=1;" vertex="1" connectable="0" parent="-cN0JcNrB5t6STGXei_7-34">
          <mxGeometry width="54" height="26" as="geometry" />
        </mxCell>
        <mxCell id="-cN0JcNrB5t6STGXei_7-36" value="dim_payments" style="swimlane;fontStyle=1;childLayout=stackLayout;horizontal=1;startSize=26;fillColor=default;horizontalStack=0;resizeParent=1;resizeLast=0;collapsible=1;marginBottom=0;swimlaneFillColor=default;align=center;fontSize=14;" vertex="1" parent="1">
          <mxGeometry x="470" y="661" width="240" height="190" as="geometry" />
        </mxCell>
        <mxCell id="-cN0JcNrB5t6STGXei_7-37" value="payment_id INT" style="shape=partialRectangle;top=0;left=0;right=0;bottom=1;align=left;verticalAlign=top;spacingTop=-2;fillColor=none;spacingLeft=64;spacingRight=4;overflow=hidden;rotatable=0;points=[[0,0.5],[1,0.5]];portConstraint=eastwest;dropTarget=0;labelBorderColor=none;" vertex="1" parent="-cN0JcNrB5t6STGXei_7-36">
          <mxGeometry y="26" width="240" height="26" as="geometry" />
        </mxCell>
        <mxCell id="-cN0JcNrB5t6STGXei_7-38" value="PK" style="shape=partialRectangle;top=0;left=0;bottom=0;fillColor=none;align=left;verticalAlign=middle;spacingLeft=4;spacingRight=4;overflow=hidden;rotatable=180;points=[];portConstraint=eastwest;part=1;fontStyle=1" vertex="1" connectable="0" parent="-cN0JcNrB5t6STGXei_7-37">
          <mxGeometry width="54" height="26" as="geometry" />
        </mxCell>
        <mxCell id="-cN0JcNrB5t6STGXei_7-39" value="order_id VARCHAR(50)" style="shape=partialRectangle;top=0;left=0;right=0;bottom=0;align=left;verticalAlign=top;spacingTop=-2;fillColor=none;spacingLeft=64;spacingRight=4;overflow=hidden;rotatable=0;points=[[0,0.5],[1,0.5]];portConstraint=eastwest;dropTarget=0;" vertex="1" parent="-cN0JcNrB5t6STGXei_7-36">
          <mxGeometry y="52" width="240" height="26" as="geometry" />
        </mxCell>
        <mxCell id="-cN0JcNrB5t6STGXei_7-40" value="FK" style="shape=partialRectangle;top=0;left=0;bottom=0;fillColor=none;align=left;verticalAlign=middle;spacingLeft=4;spacingRight=4;overflow=hidden;rotatable=180;points=[];portConstraint=eastwest;part=1;" vertex="1" connectable="0" parent="-cN0JcNrB5t6STGXei_7-39">
          <mxGeometry width="54" height="26" as="geometry" />
        </mxCell>
        <mxCell id="-cN0JcNrB5t6STGXei_7-41" value="payment_sequential INT" style="shape=partialRectangle;top=0;left=0;right=0;bottom=0;align=left;verticalAlign=top;spacingTop=-2;fillColor=none;spacingLeft=64;spacingRight=4;overflow=hidden;rotatable=0;points=[[0,0.5],[1,0.5]];portConstraint=eastwest;dropTarget=0;" vertex="1" parent="-cN0JcNrB5t6STGXei_7-36">
          <mxGeometry y="78" width="240" height="26" as="geometry" />
        </mxCell>
        <mxCell id="-cN0JcNrB5t6STGXei_7-42" value="" style="shape=partialRectangle;top=0;left=0;bottom=0;fillColor=none;align=left;verticalAlign=middle;spacingLeft=4;spacingRight=4;overflow=hidden;rotatable=180;points=[];portConstraint=eastwest;part=1;" vertex="1" connectable="0" parent="-cN0JcNrB5t6STGXei_7-41">
          <mxGeometry width="54" height="26" as="geometry" />
        </mxCell>
        <mxCell id="-cN0JcNrB5t6STGXei_7-43" value="payment_type VARCHAR(20)" style="shape=partialRectangle;top=0;left=0;right=0;bottom=0;align=left;verticalAlign=top;spacingTop=-2;fillColor=none;spacingLeft=64;spacingRight=4;overflow=hidden;rotatable=0;points=[[0,0.5],[1,0.5]];portConstraint=eastwest;dropTarget=0;" vertex="1" parent="-cN0JcNrB5t6STGXei_7-36">
          <mxGeometry y="104" width="240" height="26" as="geometry" />
        </mxCell>
        <mxCell id="-cN0JcNrB5t6STGXei_7-44" value="" style="shape=partialRectangle;top=0;left=0;bottom=0;fillColor=none;align=left;verticalAlign=middle;spacingLeft=4;spacingRight=4;overflow=hidden;rotatable=180;points=[];portConstraint=eastwest;part=1;" vertex="1" connectable="0" parent="-cN0JcNrB5t6STGXei_7-43">
          <mxGeometry width="54" height="26" as="geometry" />
        </mxCell>
        <mxCell id="-cN0JcNrB5t6STGXei_7-45" value="payment_installments INT" style="shape=partialRectangle;top=0;left=0;right=0;bottom=0;align=left;verticalAlign=top;spacingTop=-2;fillColor=none;spacingLeft=64;spacingRight=4;overflow=hidden;rotatable=0;points=[[0,0.5],[1,0.5]];portConstraint=eastwest;dropTarget=0;" vertex="1" parent="-cN0JcNrB5t6STGXei_7-36">
          <mxGeometry y="130" width="240" height="26" as="geometry" />
        </mxCell>
        <mxCell id="-cN0JcNrB5t6STGXei_7-46" value="" style="shape=partialRectangle;top=0;left=0;bottom=0;fillColor=none;align=left;verticalAlign=middle;spacingLeft=4;spacingRight=4;overflow=hidden;rotatable=180;points=[];portConstraint=eastwest;part=1;" vertex="1" connectable="0" parent="-cN0JcNrB5t6STGXei_7-45">
          <mxGeometry width="54" height="26" as="geometry" />
        </mxCell>
        <mxCell id="-cN0JcNrB5t6STGXei_7-47" value="payment_value DECIMAL(10,2)" style="shape=partialRectangle;top=0;left=0;right=0;bottom=0;align=left;verticalAlign=top;spacingTop=-2;fillColor=none;spacingLeft=64;spacingRight=4;overflow=hidden;rotatable=0;points=[[0,0.5],[1,0.5]];portConstraint=eastwest;dropTarget=0;" vertex="1" parent="-cN0JcNrB5t6STGXei_7-36">
          <mxGeometry y="156" width="240" height="26" as="geometry" />
        </mxCell>
        <mxCell id="-cN0JcNrB5t6STGXei_7-48" value="" style="shape=partialRectangle;top=0;left=0;bottom=0;fillColor=none;align=left;verticalAlign=middle;spacingLeft=4;spacingRight=4;overflow=hidden;rotatable=180;points=[];portConstraint=eastwest;part=1;" vertex="1" connectable="0" parent="-cN0JcNrB5t6STGXei_7-47">
          <mxGeometry width="54" height="26" as="geometry" />
        </mxCell>
        <mxCell id="-cN0JcNrB5t6STGXei_7-49" value="fact_orders" style="swimlane;fontStyle=1;childLayout=stackLayout;horizontal=1;startSize=26;fillColor=default;horizontalStack=0;resizeParent=1;resizeLast=0;collapsible=1;marginBottom=0;swimlaneFillColor=default;align=center;fontSize=14;" vertex="1" parent="1">
          <mxGeometry x="790" y="686" width="310" height="260" as="geometry" />
        </mxCell>
        <mxCell id="-cN0JcNrB5t6STGXei_7-50" value="order_id VARCHAR(50)" style="shape=partialRectangle;top=0;left=0;right=0;bottom=1;align=left;verticalAlign=top;spacingTop=-2;fillColor=none;spacingLeft=64;spacingRight=4;overflow=hidden;rotatable=0;points=[[0,0.5],[1,0.5]];portConstraint=eastwest;dropTarget=0;" vertex="1" parent="-cN0JcNrB5t6STGXei_7-49">
          <mxGeometry y="26" width="310" height="26" as="geometry" />
        </mxCell>
        <mxCell id="-cN0JcNrB5t6STGXei_7-51" value="PK" style="shape=partialRectangle;top=0;left=0;bottom=0;fillColor=none;align=left;verticalAlign=middle;spacingLeft=4;spacingRight=4;overflow=hidden;rotatable=180;points=[];portConstraint=eastwest;part=1;fontStyle=1" vertex="1" connectable="0" parent="-cN0JcNrB5t6STGXei_7-50">
          <mxGeometry width="54" height="26" as="geometry" />
        </mxCell>
        <mxCell id="-cN0JcNrB5t6STGXei_7-52" value="customer_id VARCHAR(50)" style="shape=partialRectangle;top=0;left=0;right=0;bottom=0;align=left;verticalAlign=top;spacingTop=-2;fillColor=none;spacingLeft=64;spacingRight=4;overflow=hidden;rotatable=0;points=[[0,0.5],[1,0.5]];portConstraint=eastwest;dropTarget=0;" vertex="1" parent="-cN0JcNrB5t6STGXei_7-49">
          <mxGeometry y="52" width="310" height="26" as="geometry" />
        </mxCell>
        <mxCell id="-cN0JcNrB5t6STGXei_7-53" value="FK" style="shape=partialRectangle;top=0;left=0;bottom=0;fillColor=none;align=left;verticalAlign=middle;spacingLeft=4;spacingRight=4;overflow=hidden;rotatable=180;points=[];portConstraint=eastwest;part=1;" vertex="1" connectable="0" parent="-cN0JcNrB5t6STGXei_7-52">
          <mxGeometry width="54" height="26" as="geometry" />
        </mxCell>
        <mxCell id="-cN0JcNrB5t6STGXei_7-54" value="date_id INT" style="shape=partialRectangle;top=0;left=0;right=0;bottom=0;align=left;verticalAlign=top;spacingTop=-2;fillColor=none;spacingLeft=64;spacingRight=4;overflow=hidden;rotatable=0;points=[[0,0.5],[1,0.5]];portConstraint=eastwest;dropTarget=0;" vertex="1" parent="-cN0JcNrB5t6STGXei_7-49">
          <mxGeometry y="78" width="310" height="26" as="geometry" />
        </mxCell>
        <mxCell id="-cN0JcNrB5t6STGXei_7-55" value="FK" style="shape=partialRectangle;top=0;left=0;bottom=0;fillColor=none;align=left;verticalAlign=middle;spacingLeft=4;spacingRight=4;overflow=hidden;rotatable=180;points=[];portConstraint=eastwest;part=1;" vertex="1" connectable="0" parent="-cN0JcNrB5t6STGXei_7-54">
          <mxGeometry width="54" height="26" as="geometry" />
        </mxCell>
        <mxCell id="-cN0JcNrB5t6STGXei_7-56" value="order_status VARCHAR(50)" style="shape=partialRectangle;top=0;left=0;right=0;bottom=0;align=left;verticalAlign=top;spacingTop=-2;fillColor=none;spacingLeft=64;spacingRight=4;overflow=hidden;rotatable=0;points=[[0,0.5],[1,0.5]];portConstraint=eastwest;dropTarget=0;" vertex="1" parent="-cN0JcNrB5t6STGXei_7-49">
          <mxGeometry y="104" width="310" height="26" as="geometry" />
        </mxCell>
        <mxCell id="-cN0JcNrB5t6STGXei_7-57" value="" style="shape=partialRectangle;top=0;left=0;bottom=0;fillColor=none;align=left;verticalAlign=middle;spacingLeft=4;spacingRight=4;overflow=hidden;rotatable=180;points=[];portConstraint=eastwest;part=1;" vertex="1" connectable="0" parent="-cN0JcNrB5t6STGXei_7-56">
          <mxGeometry width="54" height="26" as="geometry" />
        </mxCell>
        <mxCell id="-cN0JcNrB5t6STGXei_7-58" value="order_purchase_timestamp DATETIME" style="shape=partialRectangle;top=0;left=0;right=0;bottom=0;align=left;verticalAlign=top;spacingTop=-2;fillColor=none;spacingLeft=64;spacingRight=4;overflow=hidden;rotatable=0;points=[[0,0.5],[1,0.5]];portConstraint=eastwest;dropTarget=0;" vertex="1" parent="-cN0JcNrB5t6STGXei_7-49">
          <mxGeometry y="130" width="310" height="26" as="geometry" />
        </mxCell>
        <mxCell id="-cN0JcNrB5t6STGXei_7-59" value="" style="shape=partialRectangle;top=0;left=0;bottom=0;fillColor=none;align=left;verticalAlign=middle;spacingLeft=4;spacingRight=4;overflow=hidden;rotatable=180;points=[];portConstraint=eastwest;part=1;" vertex="1" connectable="0" parent="-cN0JcNrB5t6STGXei_7-58">
          <mxGeometry width="54" height="26" as="geometry" />
        </mxCell>
        <mxCell id="-cN0JcNrB5t6STGXei_7-60" value="order_approved_at DATETIME" style="shape=partialRectangle;top=0;left=0;right=0;bottom=0;align=left;verticalAlign=top;spacingTop=-2;fillColor=none;spacingLeft=64;spacingRight=4;overflow=hidden;rotatable=0;points=[[0,0.5],[1,0.5]];portConstraint=eastwest;dropTarget=0;" vertex="1" parent="-cN0JcNrB5t6STGXei_7-49">
          <mxGeometry y="156" width="310" height="26" as="geometry" />
        </mxCell>
        <mxCell id="-cN0JcNrB5t6STGXei_7-61" value="" style="shape=partialRectangle;top=0;left=0;bottom=0;fillColor=none;align=left;verticalAlign=middle;spacingLeft=4;spacingRight=4;overflow=hidden;rotatable=180;points=[];portConstraint=eastwest;part=1;" vertex="1" connectable="0" parent="-cN0JcNrB5t6STGXei_7-60">
          <mxGeometry width="54" height="26" as="geometry" />
        </mxCell>
        <mxCell id="-cN0JcNrB5t6STGXei_7-62" value="order_delivered_customer_date DATETIME" style="shape=partialRectangle;top=0;left=0;right=0;bottom=0;align=left;verticalAlign=top;spacingTop=-2;fillColor=none;spacingLeft=64;spacingRight=4;overflow=hidden;rotatable=0;points=[[0,0.5],[1,0.5]];portConstraint=eastwest;dropTarget=0;" vertex="1" parent="-cN0JcNrB5t6STGXei_7-49">
          <mxGeometry y="182" width="310" height="26" as="geometry" />
        </mxCell>
        <mxCell id="-cN0JcNrB5t6STGXei_7-63" value="" style="shape=partialRectangle;top=0;left=0;bottom=0;fillColor=none;align=left;verticalAlign=middle;spacingLeft=4;spacingRight=4;overflow=hidden;rotatable=180;points=[];portConstraint=eastwest;part=1;" vertex="1" connectable="0" parent="-cN0JcNrB5t6STGXei_7-62">
          <mxGeometry width="54" height="26" as="geometry" />
        </mxCell>
        <mxCell id="-cN0JcNrB5t6STGXei_7-64" value="order_estimated_delivery_date DATETIME" style="shape=partialRectangle;top=0;left=0;right=0;bottom=0;align=left;verticalAlign=top;spacingTop=-2;fillColor=none;spacingLeft=64;spacingRight=4;overflow=hidden;rotatable=0;points=[[0,0.5],[1,0.5]];portConstraint=eastwest;dropTarget=0;" vertex="1" parent="-cN0JcNrB5t6STGXei_7-49">
          <mxGeometry y="208" width="310" height="26" as="geometry" />
        </mxCell>
        <mxCell id="-cN0JcNrB5t6STGXei_7-65" value="" style="shape=partialRectangle;top=0;left=0;bottom=0;fillColor=none;align=left;verticalAlign=middle;spacingLeft=4;spacingRight=4;overflow=hidden;rotatable=180;points=[];portConstraint=eastwest;part=1;" vertex="1" connectable="0" parent="-cN0JcNrB5t6STGXei_7-64">
          <mxGeometry width="54" height="26" as="geometry" />
        </mxCell>
        <mxCell id="-cN0JcNrB5t6STGXei_7-66" value="sales_amount DECIMAL(10,2)" style="shape=partialRectangle;top=0;left=0;right=0;bottom=0;align=left;verticalAlign=top;spacingTop=-2;fillColor=none;spacingLeft=64;spacingRight=4;overflow=hidden;rotatable=0;points=[[0,0.5],[1,0.5]];portConstraint=eastwest;dropTarget=0;" vertex="1" parent="-cN0JcNrB5t6STGXei_7-49">
          <mxGeometry y="234" width="310" height="26" as="geometry" />
        </mxCell>
        <mxCell id="-cN0JcNrB5t6STGXei_7-67" value="" style="shape=partialRectangle;top=0;left=0;bottom=0;fillColor=none;align=left;verticalAlign=middle;spacingLeft=4;spacingRight=4;overflow=hidden;rotatable=180;points=[];portConstraint=eastwest;part=1;" vertex="1" connectable="0" parent="-cN0JcNrB5t6STGXei_7-66">
          <mxGeometry width="54" height="26" as="geometry" />
        </mxCell>
        <mxCell id="-cN0JcNrB5t6STGXei_7-68" value="fact_order_items" style="swimlane;fontStyle=1;childLayout=stackLayout;horizontal=1;startSize=26;fillColor=default;horizontalStack=0;resizeParent=1;resizeLast=0;collapsible=1;marginBottom=0;swimlaneFillColor=default;align=center;fontSize=14;" vertex="1" parent="1">
          <mxGeometry x="1520" y="699" width="250" height="234" as="geometry" />
        </mxCell>
        <mxCell id="-cN0JcNrB5t6STGXei_7-69" value="order_id VARCHAR(50)" style="shape=partialRectangle;top=0;left=0;right=0;bottom=0;align=left;verticalAlign=top;spacingTop=-2;fillColor=none;spacingLeft=64;spacingRight=4;overflow=hidden;rotatable=0;points=[[0,0.5],[1,0.5]];portConstraint=eastwest;dropTarget=0;" vertex="1" parent="-cN0JcNrB5t6STGXei_7-68">
          <mxGeometry y="26" width="250" height="26" as="geometry" />
        </mxCell>
        <mxCell id="-cN0JcNrB5t6STGXei_7-70" value="PK" style="shape=partialRectangle;top=0;left=0;bottom=0;fillColor=none;align=left;verticalAlign=middle;spacingLeft=4;spacingRight=4;overflow=hidden;rotatable=180;points=[];portConstraint=eastwest;part=1;fontStyle=1" vertex="1" connectable="0" parent="-cN0JcNrB5t6STGXei_7-69">
          <mxGeometry width="54" height="26" as="geometry" />
        </mxCell>
        <mxCell id="-cN0JcNrB5t6STGXei_7-71" value="order_item_id INT" style="shape=partialRectangle;top=0;left=0;right=0;bottom=1;align=left;verticalAlign=top;spacingTop=-2;fillColor=none;spacingLeft=64;spacingRight=4;overflow=hidden;rotatable=0;points=[[0,0.5],[1,0.5]];portConstraint=eastwest;dropTarget=0;" vertex="1" parent="-cN0JcNrB5t6STGXei_7-68">
          <mxGeometry y="52" width="250" height="26" as="geometry" />
        </mxCell>
        <mxCell id="-cN0JcNrB5t6STGXei_7-72" value="" style="shape=partialRectangle;top=0;left=0;bottom=0;fillColor=none;align=left;verticalAlign=middle;spacingLeft=4;spacingRight=4;overflow=hidden;rotatable=180;points=[];portConstraint=eastwest;part=1;" vertex="1" connectable="0" parent="-cN0JcNrB5t6STGXei_7-71">
          <mxGeometry width="54" height="26" as="geometry" />
        </mxCell>
        <mxCell id="-cN0JcNrB5t6STGXei_7-73" value="seller_id VARCHAR(50)" style="shape=partialRectangle;top=0;left=0;right=0;bottom=0;align=left;verticalAlign=top;spacingTop=-2;fillColor=none;spacingLeft=64;spacingRight=4;overflow=hidden;rotatable=0;points=[[0,0.5],[1,0.5]];portConstraint=eastwest;dropTarget=0;" vertex="1" parent="-cN0JcNrB5t6STGXei_7-68">
          <mxGeometry y="78" width="250" height="26" as="geometry" />
        </mxCell>
        <mxCell id="-cN0JcNrB5t6STGXei_7-74" value="FK" style="shape=partialRectangle;top=0;left=0;bottom=0;fillColor=none;align=left;verticalAlign=middle;spacingLeft=4;spacingRight=4;overflow=hidden;rotatable=180;points=[];portConstraint=eastwest;part=1;" vertex="1" connectable="0" parent="-cN0JcNrB5t6STGXei_7-73">
          <mxGeometry width="54" height="26" as="geometry" />
        </mxCell>
        <mxCell id="-cN0JcNrB5t6STGXei_7-75" value="date_id INT" style="shape=partialRectangle;top=0;left=0;right=0;bottom=0;align=left;verticalAlign=top;spacingTop=-2;fillColor=none;spacingLeft=64;spacingRight=4;overflow=hidden;rotatable=0;points=[[0,0.5],[1,0.5]];portConstraint=eastwest;dropTarget=0;" vertex="1" parent="-cN0JcNrB5t6STGXei_7-68">
          <mxGeometry y="104" width="250" height="26" as="geometry" />
        </mxCell>
        <mxCell id="-cN0JcNrB5t6STGXei_7-76" value="FK" style="shape=partialRectangle;top=0;left=0;bottom=0;fillColor=none;align=left;verticalAlign=middle;spacingLeft=4;spacingRight=4;overflow=hidden;rotatable=180;points=[];portConstraint=eastwest;part=1;" vertex="1" connectable="0" parent="-cN0JcNrB5t6STGXei_7-75">
          <mxGeometry width="54" height="26" as="geometry" />
        </mxCell>
        <mxCell id="-cN0JcNrB5t6STGXei_7-77" value="product_id VARCHAR(50)" style="shape=partialRectangle;top=0;left=0;right=0;bottom=0;align=left;verticalAlign=top;spacingTop=-2;fillColor=none;spacingLeft=64;spacingRight=4;overflow=hidden;rotatable=0;points=[[0,0.5],[1,0.5]];portConstraint=eastwest;dropTarget=0;" vertex="1" parent="-cN0JcNrB5t6STGXei_7-68">
          <mxGeometry y="130" width="250" height="26" as="geometry" />
        </mxCell>
        <mxCell id="-cN0JcNrB5t6STGXei_7-78" value="FK" style="shape=partialRectangle;top=0;left=0;bottom=0;fillColor=none;align=left;verticalAlign=middle;spacingLeft=4;spacingRight=4;overflow=hidden;rotatable=180;points=[];portConstraint=eastwest;part=1;" vertex="1" connectable="0" parent="-cN0JcNrB5t6STGXei_7-77">
          <mxGeometry width="54" height="26" as="geometry" />
        </mxCell>
        <mxCell id="-cN0JcNrB5t6STGXei_7-79" value="shipping_limit_date DATETIME" style="shape=partialRectangle;top=0;left=0;right=0;bottom=0;align=left;verticalAlign=top;spacingTop=-2;fillColor=none;spacingLeft=64;spacingRight=4;overflow=hidden;rotatable=0;points=[[0,0.5],[1,0.5]];portConstraint=eastwest;dropTarget=0;" vertex="1" parent="-cN0JcNrB5t6STGXei_7-68">
          <mxGeometry y="156" width="250" height="26" as="geometry" />
        </mxCell>
        <mxCell id="-cN0JcNrB5t6STGXei_7-80" value="" style="shape=partialRectangle;top=0;left=0;bottom=0;fillColor=none;align=left;verticalAlign=middle;spacingLeft=4;spacingRight=4;overflow=hidden;rotatable=180;points=[];portConstraint=eastwest;part=1;" vertex="1" connectable="0" parent="-cN0JcNrB5t6STGXei_7-79">
          <mxGeometry width="54" height="26" as="geometry" />
        </mxCell>
        <mxCell id="-cN0JcNrB5t6STGXei_7-81" value="price DECIMAL(10,2)" style="shape=partialRectangle;top=0;left=0;right=0;bottom=0;align=left;verticalAlign=top;spacingTop=-2;fillColor=none;spacingLeft=64;spacingRight=4;overflow=hidden;rotatable=0;points=[[0,0.5],[1,0.5]];portConstraint=eastwest;dropTarget=0;" vertex="1" parent="-cN0JcNrB5t6STGXei_7-68">
          <mxGeometry y="182" width="250" height="26" as="geometry" />
        </mxCell>
        <mxCell id="-cN0JcNrB5t6STGXei_7-82" value="" style="shape=partialRectangle;top=0;left=0;bottom=0;fillColor=none;align=left;verticalAlign=middle;spacingLeft=4;spacingRight=4;overflow=hidden;rotatable=180;points=[];portConstraint=eastwest;part=1;" vertex="1" connectable="0" parent="-cN0JcNrB5t6STGXei_7-81">
          <mxGeometry width="54" height="26" as="geometry" />
        </mxCell>
        <mxCell id="-cN0JcNrB5t6STGXei_7-83" value="freight_value DECIMAL(10,2)" style="shape=partialRectangle;top=0;left=0;right=0;bottom=0;align=left;verticalAlign=top;spacingTop=-2;fillColor=none;spacingLeft=64;spacingRight=4;overflow=hidden;rotatable=0;points=[[0,0.5],[1,0.5]];portConstraint=eastwest;dropTarget=0;" vertex="1" parent="-cN0JcNrB5t6STGXei_7-68">
          <mxGeometry y="208" width="250" height="26" as="geometry" />
        </mxCell>
        <mxCell id="-cN0JcNrB5t6STGXei_7-84" value="" style="shape=partialRectangle;top=0;left=0;bottom=0;fillColor=none;align=left;verticalAlign=middle;spacingLeft=4;spacingRight=4;overflow=hidden;rotatable=180;points=[];portConstraint=eastwest;part=1;" vertex="1" connectable="0" parent="-cN0JcNrB5t6STGXei_7-83">
          <mxGeometry width="54" height="26" as="geometry" />
        </mxCell>
        <mxCell id="-cN0JcNrB5t6STGXei_7-85" value="dim_date" style="swimlane;fontStyle=1;childLayout=stackLayout;horizontal=1;startSize=26;fillColor=default;horizontalStack=0;resizeParent=1;resizeLast=0;collapsible=1;marginBottom=0;swimlaneFillColor=default;align=center;fontSize=14;" vertex="1" parent="1">
          <mxGeometry x="1170" y="686" width="240" height="260" as="geometry" />
        </mxCell>
        <mxCell id="-cN0JcNrB5t6STGXei_7-86" value="date_id INT" style="shape=partialRectangle;top=0;left=0;right=0;bottom=1;align=left;verticalAlign=top;spacingTop=-2;fillColor=none;spacingLeft=64;spacingRight=4;overflow=hidden;rotatable=0;points=[[0,0.5],[1,0.5]];portConstraint=eastwest;dropTarget=0;" vertex="1" parent="-cN0JcNrB5t6STGXei_7-85">
          <mxGeometry y="26" width="240" height="26" as="geometry" />
        </mxCell>
        <mxCell id="-cN0JcNrB5t6STGXei_7-87" value="PK" style="shape=partialRectangle;top=0;left=0;bottom=0;fillColor=none;align=left;verticalAlign=middle;spacingLeft=4;spacingRight=4;overflow=hidden;rotatable=180;points=[];portConstraint=eastwest;part=1;fontStyle=1" vertex="1" connectable="0" parent="-cN0JcNrB5t6STGXei_7-86">
          <mxGeometry width="54" height="26" as="geometry" />
        </mxCell>
        <mxCell id="-cN0JcNrB5t6STGXei_7-88" value="date_value DATE" style="shape=partialRectangle;top=0;left=0;right=0;bottom=0;align=left;verticalAlign=top;spacingTop=-2;fillColor=none;spacingLeft=64;spacingRight=4;overflow=hidden;rotatable=0;points=[[0,0.5],[1,0.5]];portConstraint=eastwest;dropTarget=0;" vertex="1" parent="-cN0JcNrB5t6STGXei_7-85">
          <mxGeometry y="52" width="240" height="26" as="geometry" />
        </mxCell>
        <mxCell id="-cN0JcNrB5t6STGXei_7-89" value="" style="shape=partialRectangle;top=0;left=0;bottom=0;fillColor=none;align=left;verticalAlign=middle;spacingLeft=4;spacingRight=4;overflow=hidden;rotatable=180;points=[];portConstraint=eastwest;part=1;" vertex="1" connectable="0" parent="-cN0JcNrB5t6STGXei_7-88">
          <mxGeometry width="54" height="26" as="geometry" />
        </mxCell>
        <mxCell id="-cN0JcNrB5t6STGXei_7-90" value="day INT" style="shape=partialRectangle;top=0;left=0;right=0;bottom=0;align=left;verticalAlign=top;spacingTop=-2;fillColor=none;spacingLeft=64;spacingRight=4;overflow=hidden;rotatable=0;points=[[0,0.5],[1,0.5]];portConstraint=eastwest;dropTarget=0;" vertex="1" parent="-cN0JcNrB5t6STGXei_7-85">
          <mxGeometry y="78" width="240" height="26" as="geometry" />
        </mxCell>
        <mxCell id="-cN0JcNrB5t6STGXei_7-91" value="" style="shape=partialRectangle;top=0;left=0;bottom=0;fillColor=none;align=left;verticalAlign=middle;spacingLeft=4;spacingRight=4;overflow=hidden;rotatable=180;points=[];portConstraint=eastwest;part=1;" vertex="1" connectable="0" parent="-cN0JcNrB5t6STGXei_7-90">
          <mxGeometry width="54" height="26" as="geometry" />
        </mxCell>
        <mxCell id="-cN0JcNrB5t6STGXei_7-92" value="month INT" style="shape=partialRectangle;top=0;left=0;right=0;bottom=0;align=left;verticalAlign=top;spacingTop=-2;fillColor=none;spacingLeft=64;spacingRight=4;overflow=hidden;rotatable=0;points=[[0,0.5],[1,0.5]];portConstraint=eastwest;dropTarget=0;" vertex="1" parent="-cN0JcNrB5t6STGXei_7-85">
          <mxGeometry y="104" width="240" height="26" as="geometry" />
        </mxCell>
        <mxCell id="-cN0JcNrB5t6STGXei_7-93" value="" style="shape=partialRectangle;top=0;left=0;bottom=0;fillColor=none;align=left;verticalAlign=middle;spacingLeft=4;spacingRight=4;overflow=hidden;rotatable=180;points=[];portConstraint=eastwest;part=1;" vertex="1" connectable="0" parent="-cN0JcNrB5t6STGXei_7-92">
          <mxGeometry width="54" height="26" as="geometry" />
        </mxCell>
        <mxCell id="-cN0JcNrB5t6STGXei_7-94" value="month_name VARCHAR(50)" style="shape=partialRectangle;top=0;left=0;right=0;bottom=0;align=left;verticalAlign=top;spacingTop=-2;fillColor=none;spacingLeft=64;spacingRight=4;overflow=hidden;rotatable=0;points=[[0,0.5],[1,0.5]];portConstraint=eastwest;dropTarget=0;" vertex="1" parent="-cN0JcNrB5t6STGXei_7-85">
          <mxGeometry y="130" width="240" height="26" as="geometry" />
        </mxCell>
        <mxCell id="-cN0JcNrB5t6STGXei_7-95" value="" style="shape=partialRectangle;top=0;left=0;bottom=0;fillColor=none;align=left;verticalAlign=middle;spacingLeft=4;spacingRight=4;overflow=hidden;rotatable=180;points=[];portConstraint=eastwest;part=1;" vertex="1" connectable="0" parent="-cN0JcNrB5t6STGXei_7-94">
          <mxGeometry width="54" height="26" as="geometry" />
        </mxCell>
        <mxCell id="-cN0JcNrB5t6STGXei_7-96" value="year INT" style="shape=partialRectangle;top=0;left=0;right=0;bottom=0;align=left;verticalAlign=top;spacingTop=-2;fillColor=none;spacingLeft=64;spacingRight=4;overflow=hidden;rotatable=0;points=[[0,0.5],[1,0.5]];portConstraint=eastwest;dropTarget=0;" vertex="1" parent="-cN0JcNrB5t6STGXei_7-85">
          <mxGeometry y="156" width="240" height="26" as="geometry" />
        </mxCell>
        <mxCell id="-cN0JcNrB5t6STGXei_7-97" value="" style="shape=partialRectangle;top=0;left=0;bottom=0;fillColor=none;align=left;verticalAlign=middle;spacingLeft=4;spacingRight=4;overflow=hidden;rotatable=180;points=[];portConstraint=eastwest;part=1;" vertex="1" connectable="0" parent="-cN0JcNrB5t6STGXei_7-96">
          <mxGeometry width="54" height="26" as="geometry" />
        </mxCell>
        <mxCell id="-cN0JcNrB5t6STGXei_7-98" value="day_of_week INT" style="shape=partialRectangle;top=0;left=0;right=0;bottom=0;align=left;verticalAlign=top;spacingTop=-2;fillColor=none;spacingLeft=64;spacingRight=4;overflow=hidden;rotatable=0;points=[[0,0.5],[1,0.5]];portConstraint=eastwest;dropTarget=0;" vertex="1" parent="-cN0JcNrB5t6STGXei_7-85">
          <mxGeometry y="182" width="240" height="26" as="geometry" />
        </mxCell>
        <mxCell id="-cN0JcNrB5t6STGXei_7-99" value="" style="shape=partialRectangle;top=0;left=0;bottom=0;fillColor=none;align=left;verticalAlign=middle;spacingLeft=4;spacingRight=4;overflow=hidden;rotatable=180;points=[];portConstraint=eastwest;part=1;" vertex="1" connectable="0" parent="-cN0JcNrB5t6STGXei_7-98">
          <mxGeometry width="54" height="26" as="geometry" />
        </mxCell>
        <mxCell id="-cN0JcNrB5t6STGXei_7-100" value="day_name VACHAR(20)" style="shape=partialRectangle;top=0;left=0;right=0;bottom=0;align=left;verticalAlign=top;spacingTop=-2;fillColor=none;spacingLeft=64;spacingRight=4;overflow=hidden;rotatable=0;points=[[0,0.5],[1,0.5]];portConstraint=eastwest;dropTarget=0;" vertex="1" parent="-cN0JcNrB5t6STGXei_7-85">
          <mxGeometry y="208" width="240" height="26" as="geometry" />
        </mxCell>
        <mxCell id="-cN0JcNrB5t6STGXei_7-101" value="" style="shape=partialRectangle;top=0;left=0;bottom=0;fillColor=none;align=left;verticalAlign=middle;spacingLeft=4;spacingRight=4;overflow=hidden;rotatable=180;points=[];portConstraint=eastwest;part=1;" vertex="1" connectable="0" parent="-cN0JcNrB5t6STGXei_7-100">
          <mxGeometry width="54" height="26" as="geometry" />
        </mxCell>
        <mxCell id="-cN0JcNrB5t6STGXei_7-102" value="quarter INT" style="shape=partialRectangle;top=0;left=0;right=0;bottom=0;align=left;verticalAlign=top;spacingTop=-2;fillColor=none;spacingLeft=64;spacingRight=4;overflow=hidden;rotatable=0;points=[[0,0.5],[1,0.5]];portConstraint=eastwest;dropTarget=0;" vertex="1" parent="-cN0JcNrB5t6STGXei_7-85">
          <mxGeometry y="234" width="240" height="26" as="geometry" />
        </mxCell>
        <mxCell id="-cN0JcNrB5t6STGXei_7-103" value="" style="shape=partialRectangle;top=0;left=0;bottom=0;fillColor=none;align=left;verticalAlign=middle;spacingLeft=4;spacingRight=4;overflow=hidden;rotatable=180;points=[];portConstraint=eastwest;part=1;" vertex="1" connectable="0" parent="-cN0JcNrB5t6STGXei_7-102">
          <mxGeometry width="54" height="26" as="geometry" />
        </mxCell>
        <mxCell id="-cN0JcNrB5t6STGXei_7-104" style="edgeStyle=orthogonalEdgeStyle;rounded=0;orthogonalLoop=1;jettySize=auto;html=1;" edge="1" parent="1" source="-cN0JcNrB5t6STGXei_7-54" target="-cN0JcNrB5t6STGXei_7-90">
          <mxGeometry relative="1" as="geometry" />
        </mxCell>
        <mxCell id="-cN0JcNrB5t6STGXei_7-105" style="edgeStyle=orthogonalEdgeStyle;rounded=0;orthogonalLoop=1;jettySize=auto;html=1;entryX=1;entryY=0.5;entryDx=0;entryDy=0;" edge="1" parent="1" source="-cN0JcNrB5t6STGXei_7-75" target="-cN0JcNrB5t6STGXei_7-90">
          <mxGeometry relative="1" as="geometry" />
        </mxCell>
        <mxCell id="-cN0JcNrB5t6STGXei_7-106" style="edgeStyle=orthogonalEdgeStyle;rounded=0;orthogonalLoop=1;jettySize=auto;html=1;entryX=1;entryY=0.5;entryDx=0;entryDy=0;" edge="1" parent="1" source="-cN0JcNrB5t6STGXei_7-73" target="-cN0JcNrB5t6STGXei_7-13">
          <mxGeometry relative="1" as="geometry">
            <mxPoint x="1800" y="489" as="targetPoint" />
            <Array as="points">
              <mxPoint x="1820" y="790" />
              <mxPoint x="1820" y="489" />
            </Array>
          </mxGeometry>
        </mxCell>
        <mxCell id="-cN0JcNrB5t6STGXei_7-107" style="edgeStyle=orthogonalEdgeStyle;rounded=0;orthogonalLoop=1;jettySize=auto;html=1;entryX=1;entryY=0.5;entryDx=0;entryDy=0;" edge="1" parent="1" source="-cN0JcNrB5t6STGXei_7-77" target="-cN0JcNrB5t6STGXei_7-22">
          <mxGeometry relative="1" as="geometry">
            <Array as="points">
              <mxPoint x="1790" y="842" />
              <mxPoint x="1790" y="1039" />
            </Array>
          </mxGeometry>
        </mxCell>
        <mxCell id="-cN0JcNrB5t6STGXei_7-108" style="edgeStyle=orthogonalEdgeStyle;rounded=0;orthogonalLoop=1;jettySize=auto;html=1;entryX=1;entryY=0.5;entryDx=0;entryDy=0;" edge="1" parent="1" source="-cN0JcNrB5t6STGXei_7-52" target="-cN0JcNrB5t6STGXei_7-2">
          <mxGeometry relative="1" as="geometry" />
        </mxCell>
        <mxCell id="-cN0JcNrB5t6STGXei_7-109" style="edgeStyle=orthogonalEdgeStyle;rounded=0;orthogonalLoop=1;jettySize=auto;html=1;entryX=0;entryY=0.5;entryDx=0;entryDy=0;" edge="1" parent="1" source="-cN0JcNrB5t6STGXei_7-39" target="-cN0JcNrB5t6STGXei_7-50">
          <mxGeometry relative="1" as="geometry" />
        </mxCell>
      </root>
    </mxGraphModel>
  </diagram>
</mxfile>
